<?xml version="1.0" encoding="UTF-8" standalone="no"?>
<svg
   xmlns:dc="http://purl.org/dc/elements/1.1/"
   xmlns:cc="http://creativecommons.org/ns#"
   xmlns:rdf="http://www.w3.org/1999/02/22-rdf-syntax-ns#"
   xmlns:svg="http://www.w3.org/2000/svg"
   xmlns="http://www.w3.org/2000/svg"
   id="svg8"
   version="1.1"
   viewBox="0 0 38.260799 7.5776658"
   height="7.5776658mm"
   width="38.260799mm">
  <g transform="translate(-38.220952,-77.084378)" fill="#fbba00">
    <path
       d="m 38.220952,84.577377 h 3.07975 v -1.058333 h -1.915583 v -6.35 h -1.164167 z" />
    <path
       d="m 42.886549,78.872961 c 0,-0.529167 0.232833,-0.73025 0.603249,-0.73025 0.370417,0 0.60325,0.201083 0.60325,0.73025 v 4.0005 c 0,0.529166 -0.232833,0.73025 -0.60325,0.73025 -0.370416,0 -0.603249,-0.201084 -0.603249,-0.73025 z m -1.164167,3.926416 c 0,1.185334 0.624417,1.862667 1.767416,1.862667 1.143,0 1.767417,-0.677333 1.767417,-1.862667 v -3.852333 c 0,-1.185333 -0.624417,-1.862666 -1.767417,-1.862666 -1.142999,0 -1.767416,0.677333 -1.767416,1.862666 z" />
    <path
       d="m 48.500841,84.577377 h 1.195917 v -7.408333 h -1.037167 v 4.434417 l -1.195917,-4.434417 h -1.460499 v 7.408333 h 1.047749 v -5.36575 z" />
    <path
       d="m 50.540613,84.577377 h 1.8415 c 1.164167,0 1.735667,-0.645583 1.735667,-1.830916 v -3.7465 c 0,-1.185333 -0.5715,-1.830917 -1.735667,-1.830917 h -1.8415 z m 1.820334,-6.349999 c 0.370416,0 0.592666,0.1905 0.592666,0.719666 v 3.852333 c 0,0.529167 -0.22225,0.719667 -0.592666,0.719667 H 51.70478 v -5.291666 z" />
    <path
       d="m 55.929679,78.872961 c 0,-0.529167 0.232834,-0.73025 0.60325,-0.73025 0.370417,0 0.60325,0.201083 0.60325,0.73025 v 4.0005 c 0,0.529166 -0.232833,0.73025 -0.60325,0.73025 -0.370416,0 -0.60325,-0.201084 -0.60325,-0.73025 z m -1.164166,3.926416 c 0,1.185334 0.624416,1.862667 1.767416,1.862667 1.143,0 1.767417,-0.677333 1.767417,-1.862667 v -3.852333 c 0,-1.185333 -0.624417,-1.862666 -1.767417,-1.862666 -1.143,0 -1.767416,0.677333 -1.767416,1.862666 z" />
    <path
       d="m 61.543973,84.577377 h 1.195917 v -7.408333 h -1.037167 v 4.434417 l -1.195917,-4.434417 h -1.4605 v 7.408333 h 1.04775 v -5.36575 z" />
    <g fill="#ffffff">
      <path
         d="M 64.408712,77.189761 H 63.65112 v 3.466108 h 0.475351 v -2.451034 l 0.40603,2.451034 h 0.514965 l 0.37632,-2.485695 v 2.485695 h 0.514965 v -3.466108 h -0.757593 l -0.371368,2.460936 z" />
      <path
         d="m 66.334955,80.655869 h 0.544674 v -3.466108 h -0.544674 z" />
      <path
         d="m 68.436669,80.655869 h 0.559529 v -3.466108 h -0.485255 v 2.074713 l -0.559529,-2.074713 h -0.683318 v 3.466108 h 0.490206 v -2.510453 z" />
      <path
         d="m 69.39101,80.655869 h 0.861575 c 0.544674,0 0.81206,-0.302047 0.81206,-0.856624 v -1.75286 c 0,-0.554578 -0.267386,-0.856624 -0.81206,-0.856624 H 69.39101 Z m 0.851672,-2.97095 c 0.173305,0 0.277289,0.08913 0.277289,0.336708 v 1.802376 c 0,0.247579 -0.103984,0.336707 -0.277289,0.336707 h -0.306998 v -2.475791 z" />
    </g>
    <g fill="#ffffff">
      <path
         d="m 63.65112,81.606428 h 0.569432 v 2.970949 h 0.544674 v -2.970949 h 0.569432 V 81.11127 H 63.65112 Z" />
      <path
         d="m 66.114378,83.091903 h 0.618947 v 1.485474 h 0.554578 V 81.11127 h -0.554578 v 1.485474 H 66.114378 V 81.11127 h -0.544674 v 3.466107 h 0.544674 z" />
      <path
         d="m 68.23234,81.606428 h 0.9408 V 81.11127 h -1.485474 v 3.466107 h 1.485474 v -0.495158 h -0.9408 v -1.015074 h 0.747689 V 82.571986 H 68.23234 Z" />
      <path
         d="m 71.96328,84.577377 c -0.05447,-0.128741 -0.05942,-0.25253 -0.05942,-0.420884 v -0.534771 c 0,-0.361466 -0.08913,-0.623899 -0.361466,-0.737786 0.242628,-0.113886 0.356514,-0.346611 0.356514,-0.703125 v -0.272337 c 0,-0.534771 -0.242627,-0.797204 -0.807108,-0.797204 h -0.821962 v 3.466107 h 0.544674 v -1.411201 h 0.18816 c 0.247579,0 0.356514,0.118838 0.356514,0.440691 v 0.544674 c 0,0.28224 0.01981,0.336708 0.04952,0.425836 z m -0.886333,-2.970949 c 0.193111,0 0.277288,0.108935 0.277288,0.356514 v 0.341659 c 0,0.277289 -0.123789,0.366417 -0.326804,0.366417 h -0.212918 v -1.06459 z" />
      <path
         d="m 72.103626,81.606428 h 0.569432 v 2.970949 h 0.544674 v -2.970949 h 0.569432 V 81.11127 h -1.683538 z" />
      <path
         d="m 75.0868,83.285014 v 0.495159 c 0,0.247579 -0.108935,0.336707 -0.28224,0.336707 -0.173306,0 -0.282241,-0.08913 -0.282241,-0.336707 v -1.871699 c 0,-0.247579 0.108935,-0.341659 0.282241,-0.341659 0.173305,0 0.28224,0.09408 0.28224,0.341659 v 0.371369 h 0.514964 v -0.336708 c 0,-0.554577 -0.277288,-0.871478 -0.812059,-0.871478 -0.534771,0 -0.81206,0.316901 -0.81206,0.871478 v 1.802376 c 0,0.554578 0.277289,0.871479 0.81206,0.871479 0.534771,0 0.812059,-0.316901 0.812059,-0.871479 v -0.460497 z" />
      <path
         d="m 76.412432,83.809882 0.06932,-1.25275 V 81.11127 H 75.93708 v 1.445862 l 0.06932,1.25275 z m -0.465449,0.242628 v 0.524867 h 0.524868 V 84.05251 Z" />
    </g>
  </g>
</svg>
